<svg width="24" height="25" viewBox="0 0 24 25" fill="none" xmlns="http://www.w3.org/2000/svg">
<g clip-path="url(#clip0_3887_1427)">
<path d="M12.7749 23.5942L21.9242 17.441L12.0076 12.621L2.85827 18.7742L12.7749 23.5942Z" fill="url(#paint0_linear_3887_1427)"/>
<path d="M21.9242 17.4407L21.1569 6.46745L11.2402 1.64746L12.0076 12.6207L21.9242 17.4407Z" fill="url(#paint1_linear_3887_1427)"/>
<path d="M11.24 1.64784L2.09069 7.80106L2.85801 18.7743L12.0073 12.621L11.24 1.64784Z" fill="url(#paint2_linear_3887_1427)"/>
<path d="M21.158 6.46767L12.776 23.5941L12.0087 12.6209L21.158 6.46767Z" fill="#555555"/>
<path d="M21.1577 6.46756L12.0084 12.6208L2.0918 7.80078L21.1577 6.46756Z" fill="black"/>
</g>
<defs>
<linearGradient id="paint0_linear_3887_1427" x1="12.0076" y1="12.621" x2="12.7749" y2="23.5942" gradientUnits="userSpaceOnUse">
<stop offset="0.16" stop-opacity="0.39"/>
<stop offset="0.658" stop-opacity="0.8"/>
</linearGradient>
<linearGradient id="paint1_linear_3887_1427" x1="21.1592" y1="6.50129" x2="12.0171" y2="12.7578" gradientUnits="userSpaceOnUse">
<stop offset="0.182" stop-opacity="0.31"/>
<stop offset="0.715" stop-opacity="0"/>
</linearGradient>
<linearGradient id="paint2_linear_3887_1427" x1="11.24" y1="1.64784" x2="2.85801" y2="18.7743" gradientUnits="userSpaceOnUse">
<stop stop-opacity="0.6"/>
<stop offset="0.667" stop-opacity="0.22"/>
</linearGradient>
<clipPath id="clip0_3887_1427">
<rect width="22" height="22" fill="white" transform="translate(0.335938 2.41016) rotate(-4)"/>
</clipPath>
</defs>
</svg>
